<svg xmlns="http://www.w3.org/2000/svg" height="512pt" version="1.1" viewBox="0 -61 512 512" width="512pt">
<g id="surface1">
<path d="M 15 120 C 23.285156 120 30 113.285156 30 105 L 30 30 L 106 30 C 114.285156 30 121 23.285156 121 15 C 121 6.714844 114.285156 0 106 0 L 15 0 C 6.714844 0 0 6.714844 0 15 L 0 105 C 0 113.285156 6.714844 120 15 120 Z M 15 120 " style=" stroke:none;fill-rule:nonzero;fill:rgb(0%,0%,0%);fill-opacity:1;" />
<path d="M 15 390 L 106 390 C 114.285156 390 121 383.285156 121 375 C 121 366.714844 114.285156 360 106 360 L 30 360 L 30 285 C 30 276.714844 23.285156 270 15 270 C 6.714844 270 0 276.714844 0 285 L 0 375 C 0 383.285156 6.714844 390 15 390 Z M 15 390 " style=" stroke:none;fill-rule:nonzero;fill:rgb(0%,0%,0%);fill-opacity:1;" />
<path d="M 497 0 L 406 0 C 397.714844 0 391 6.714844 391 15 C 391 23.285156 397.714844 30 406 30 L 482 30 L 482 105 C 482 113.285156 488.714844 120 497 120 C 505.285156 120 512 113.285156 512 105 L 512 15 C 512 6.714844 505.285156 0 497 0 Z M 497 0 " style=" stroke:none;fill-rule:nonzero;fill:rgb(0%,0%,0%);fill-opacity:1;" />
<path d="M 497 270 C 488.714844 270 482 276.714844 482 285 L 482 360 L 406 360 C 397.714844 360 391 366.714844 391 375 C 391 383.285156 397.714844 390 406 390 L 497 390 C 505.285156 390 512 383.285156 512 375 L 512 285 C 512 276.714844 505.285156 270 497 270 Z M 497 270 " style=" stroke:none;fill-rule:nonzero;fill:rgb(0%,0%,0%);fill-opacity:1;" />
<path d="M 497 150 L 421 150 L 421 75 C 421 66.714844 414.285156 60 406 60 C 397.714844 60 391 66.714844 391 75 L 391 150 L 361 150 L 361 135 C 361 126.714844 354.285156 120 346 120 C 337.714844 120 331 126.714844 331 135 L 331 150 L 301 150 L 301 75 C 301 66.714844 294.285156 60 286 60 C 277.714844 60 271 66.714844 271 75 L 271 150 L 241 150 L 241 135 C 241 126.714844 234.285156 120 226 120 C 217.714844 120 211 126.714844 211 135 L 211 150 L 181 150 L 181 75 C 181 66.714844 174.285156 60 166 60 C 157.714844 60 151 66.714844 151 75 L 151 150 L 121 150 L 121 135 C 121 126.714844 114.285156 120 106 120 C 97.714844 120 91 126.714844 91 135 L 91 150 L 15 150 C 6.714844 150 0 156.714844 0 165 L 0 225 C 0 233.285156 6.714844 240 15 240 L 91 240 L 91 315 C 91 323.285156 97.714844 330 106 330 C 114.285156 330 121 323.285156 121 315 L 121 240 L 151 240 L 151 255 C 151 263.285156 157.714844 270 166 270 C 174.285156 270 181 263.285156 181 255 L 181 240 L 211 240 L 211 315 C 211 323.285156 217.714844 330 226 330 C 234.285156 330 241 323.285156 241 315 L 241 240 L 271 240 L 271 255 C 271 263.285156 277.714844 270 286 270 C 294.285156 270 301 263.285156 301 255 L 301 240 L 331 240 L 331 315 C 331 323.285156 337.714844 330 346 330 C 354.285156 330 361 323.285156 361 315 L 361 240 L 391 240 L 391 255 C 391 263.285156 397.714844 270 406 270 C 414.285156 270 421 263.285156 421 255 L 421 240 L 497 240 C 505.285156 240 512 233.285156 512 225 L 512 165 C 512 156.714844 505.285156 150 497 150 Z M 482 210 L 30 210 L 30 180 L 482 180 Z M 482 210 " style=" stroke:none;fill-rule:nonzero;fill:rgb(0%,0%,0%);fill-opacity:1;" />
<path d="M 120.972656 75 C 120.972656 83.285156 114.253906 90 105.972656 90 C 97.6875 90 90.972656 83.285156 90.972656 75 C 90.972656 66.714844 97.6875 60 105.972656 60 C 114.253906 60 120.972656 66.714844 120.972656 75 Z M 120.972656 75 " style=" stroke:none;fill-rule:nonzero;fill:rgb(0%,0%,0%);fill-opacity:1;" />
<path d="M 240.972656 75 C 240.972656 83.285156 234.253906 90 225.972656 90 C 217.6875 90 210.972656 83.285156 210.972656 75 C 210.972656 66.714844 217.6875 60 225.972656 60 C 234.253906 60 240.972656 66.714844 240.972656 75 Z M 240.972656 75 " style=" stroke:none;fill-rule:nonzero;fill:rgb(0%,0%,0%);fill-opacity:1;" />
<path d="M 360.972656 75 C 360.972656 83.285156 354.253906 90 345.972656 90 C 337.6875 90 330.972656 83.285156 330.972656 75 C 330.972656 66.714844 337.6875 60 345.972656 60 C 354.253906 60 360.972656 66.714844 360.972656 75 Z M 360.972656 75 " style=" stroke:none;fill-rule:nonzero;fill:rgb(0%,0%,0%);fill-opacity:1;" />
<path d="M 180.972656 315 C 180.972656 323.285156 174.253906 330 165.972656 330 C 157.6875 330 150.972656 323.285156 150.972656 315 C 150.972656 306.714844 157.6875 300 165.972656 300 C 174.253906 300 180.972656 306.714844 180.972656 315 Z M 180.972656 315 " style=" stroke:none;fill-rule:nonzero;fill:rgb(0%,0%,0%);fill-opacity:1;" />
<path d="M 300.972656 315 C 300.972656 323.285156 294.253906 330 285.972656 330 C 277.6875 330 270.972656 323.285156 270.972656 315 C 270.972656 306.714844 277.6875 300 285.972656 300 C 294.253906 300 300.972656 306.714844 300.972656 315 Z M 300.972656 315 " style=" stroke:none;fill-rule:nonzero;fill:rgb(0%,0%,0%);fill-opacity:1;" />
<path d="M 420.972656 315 C 420.972656 323.285156 414.253906 330 405.972656 330 C 397.6875 330 390.972656 323.285156 390.972656 315 C 390.972656 306.714844 397.6875 300 405.972656 300 C 414.253906 300 420.972656 306.714844 420.972656 315 Z M 420.972656 315 " style=" stroke:none;fill-rule:nonzero;fill:rgb(0%,0%,0%);fill-opacity:1;" />
</g>
</svg>